<mxfile host="app.diagrams.net" modified="2023-11-04T16:27:18.732Z" agent="Mozilla/5.0 (Macintosh; Intel Mac OS X 10_15_7) AppleWebKit/537.36 (KHTML, like Gecko) Chrome/118.0.0.0 Safari/537.36" etag="Ct-lS3OYUZD_eqNWwJQ2" version="22.0.8" type="github">
  <diagram name="Page-1" id="8b6d7hMV0Gz6170TD7ij">
    <mxGraphModel dx="2521" dy="1296" grid="1" gridSize="10" guides="1" tooltips="1" connect="1" arrows="1" fold="1" page="1" pageScale="1" pageWidth="1654" pageHeight="1169" math="0" shadow="0">
      <root>
        <mxCell id="0" />
        <mxCell id="1" parent="0" />
        <mxCell id="zMahYsYN_JZd5JUXkMAy-1" value="Region" style="sketch=0;outlineConnect=0;gradientColor=none;html=1;whiteSpace=wrap;fontSize=12;fontStyle=0;shape=mxgraph.aws4.group;grIcon=mxgraph.aws4.group_region;strokeColor=#888991;fillColor=none;verticalAlign=top;align=left;spacingLeft=30;fontColor=#879196;dashed=1;" parent="1" vertex="1">
          <mxGeometry x="320" y="120" width="1200" height="800" as="geometry" />
        </mxCell>
        <mxCell id="zMahYsYN_JZd5JUXkMAy-6" value="VPC" style="points=[[0,0],[0.25,0],[0.5,0],[0.75,0],[1,0],[1,0.25],[1,0.5],[1,0.75],[1,1],[0.75,1],[0.5,1],[0.25,1],[0,1],[0,0.75],[0,0.5],[0,0.25]];outlineConnect=0;gradientColor=none;html=1;whiteSpace=wrap;fontSize=12;fontStyle=0;container=1;pointerEvents=0;collapsible=0;recursiveResize=0;shape=mxgraph.aws4.group;grIcon=mxgraph.aws4.group_vpc;strokeColor=#248814;fillColor=none;verticalAlign=top;align=left;spacingLeft=30;fontColor=#AAB7B8;dashed=0;" parent="1" vertex="1">
          <mxGeometry x="400" y="200" width="1000" height="640" as="geometry" />
        </mxCell>
        <mxCell id="zMahYsYN_JZd5JUXkMAy-7" value="Availability Zone" style="fillColor=none;strokeColor=#147EBA;dashed=1;verticalAlign=top;fontStyle=0;fontColor=#147EBA;whiteSpace=wrap;html=1;" parent="zMahYsYN_JZd5JUXkMAy-6" vertex="1">
          <mxGeometry x="80" y="40" width="840" height="200" as="geometry" />
        </mxCell>
        <mxCell id="zMahYsYN_JZd5JUXkMAy-8" value="Availability Zone" style="fillColor=none;strokeColor=#147EBA;dashed=1;verticalAlign=top;fontStyle=0;fontColor=#147EBA;whiteSpace=wrap;html=1;" parent="zMahYsYN_JZd5JUXkMAy-6" vertex="1">
          <mxGeometry x="80" y="400" width="840" height="200" as="geometry" />
        </mxCell>
        <mxCell id="zMahYsYN_JZd5JUXkMAy-39" value="Internet&lt;br&gt;Gateway" style="outlineConnect=0;dashed=0;verticalLabelPosition=bottom;verticalAlign=top;align=center;html=1;shape=mxgraph.aws3.internet_gateway;fillColor=#F58534;gradientColor=none;" parent="zMahYsYN_JZd5JUXkMAy-6" vertex="1">
          <mxGeometry x="-36" y="269" width="69" height="72" as="geometry" />
        </mxCell>
        <mxCell id="zMahYsYN_JZd5JUXkMAy-28" value="AWS Cloud" style="points=[[0,0],[0.25,0],[0.5,0],[0.75,0],[1,0],[1,0.25],[1,0.5],[1,0.75],[1,1],[0.75,1],[0.5,1],[0.25,1],[0,1],[0,0.75],[0,0.5],[0,0.25]];outlineConnect=0;gradientColor=none;html=1;whiteSpace=wrap;fontSize=12;fontStyle=0;container=1;pointerEvents=0;collapsible=0;recursiveResize=0;shape=mxgraph.aws4.group;grIcon=mxgraph.aws4.group_aws_cloud;strokeColor=#232F3E;fillColor=none;verticalAlign=top;align=left;spacingLeft=30;fontColor=#232F3E;dashed=0;" parent="1" vertex="1">
          <mxGeometry x="200" y="40" width="1400" height="960" as="geometry" />
        </mxCell>
        <mxCell id="zMahYsYN_JZd5JUXkMAy-44" value="Private subnet" style="points=[[0,0],[0.25,0],[0.5,0],[0.75,0],[1,0],[1,0.25],[1,0.5],[1,0.75],[1,1],[0.75,1],[0.5,1],[0.25,1],[0,1],[0,0.75],[0,0.5],[0,0.25]];outlineConnect=0;gradientColor=none;html=1;whiteSpace=wrap;fontSize=12;fontStyle=0;container=1;pointerEvents=0;collapsible=0;recursiveResize=0;shape=mxgraph.aws4.group;grIcon=mxgraph.aws4.group_security_group;grStroke=0;strokeColor=#147EBA;fillColor=#E6F2F8;verticalAlign=top;align=left;spacingLeft=30;fontColor=#147EBA;dashed=0;" parent="zMahYsYN_JZd5JUXkMAy-28" vertex="1">
          <mxGeometry x="580" y="230" width="240" height="150" as="geometry" />
        </mxCell>
        <mxCell id="zMahYsYN_JZd5JUXkMAy-93" style="edgeStyle=orthogonalEdgeStyle;rounded=0;orthogonalLoop=1;jettySize=auto;html=1;" parent="zMahYsYN_JZd5JUXkMAy-44" target="zMahYsYN_JZd5JUXkMAy-54" edge="1">
          <mxGeometry relative="1" as="geometry">
            <mxPoint x="80" y="88.5" as="sourcePoint" />
          </mxGeometry>
        </mxCell>
        <mxCell id="zMahYsYN_JZd5JUXkMAy-94" style="edgeStyle=orthogonalEdgeStyle;rounded=0;orthogonalLoop=1;jettySize=auto;html=1;" parent="zMahYsYN_JZd5JUXkMAy-44" target="zMahYsYN_JZd5JUXkMAy-79" edge="1">
          <mxGeometry relative="1" as="geometry">
            <Array as="points">
              <mxPoint x="110" y="37" />
            </Array>
            <mxPoint x="110" y="57" as="sourcePoint" />
          </mxGeometry>
        </mxCell>
        <mxCell id="zMahYsYN_JZd5JUXkMAy-54" value="Route table" style="sketch=0;outlineConnect=0;fontColor=#232F3E;gradientColor=none;strokeColor=#232F3E;fillColor=#ffffff;dashed=0;verticalLabelPosition=bottom;verticalAlign=top;align=center;html=1;fontSize=12;fontStyle=0;aspect=fixed;shape=mxgraph.aws4.resourceIcon;resIcon=mxgraph.aws4.route_table;" parent="zMahYsYN_JZd5JUXkMAy-44" vertex="1">
          <mxGeometry x="-30" y="50" width="51" height="51" as="geometry" />
        </mxCell>
        <mxCell id="zMahYsYN_JZd5JUXkMAy-79" value="EBS" style="outlineConnect=0;dashed=0;verticalLabelPosition=bottom;verticalAlign=top;align=center;html=1;shape=mxgraph.aws3.volume;fillColor=#E05243;gradientColor=none;" parent="zMahYsYN_JZd5JUXkMAy-44" vertex="1">
          <mxGeometry x="130" y="33" width="30" height="30" as="geometry" />
        </mxCell>
        <mxCell id="zMahYsYN_JZd5JUXkMAy-121" value="NACL" style="sketch=0;outlineConnect=0;fontColor=#232F3E;gradientColor=none;fillColor=#4D27AA;strokeColor=none;dashed=0;verticalLabelPosition=bottom;verticalAlign=top;align=center;html=1;fontSize=12;fontStyle=0;aspect=fixed;pointerEvents=1;shape=mxgraph.aws4.network_access_control_list;" parent="zMahYsYN_JZd5JUXkMAy-44" vertex="1">
          <mxGeometry x="179" y="-21" width="38" height="38" as="geometry" />
        </mxCell>
        <mxCell id="zMahYsYN_JZd5JUXkMAy-45" value="Private subnet" style="points=[[0,0],[0.25,0],[0.5,0],[0.75,0],[1,0],[1,0.25],[1,0.5],[1,0.75],[1,1],[0.75,1],[0.5,1],[0.25,1],[0,1],[0,0.75],[0,0.5],[0,0.25]];outlineConnect=0;gradientColor=none;html=1;whiteSpace=wrap;fontSize=12;fontStyle=0;container=1;pointerEvents=0;collapsible=0;recursiveResize=0;shape=mxgraph.aws4.group;grIcon=mxgraph.aws4.group_security_group;grStroke=0;strokeColor=#147EBA;fillColor=#E6F2F8;verticalAlign=top;align=left;spacingLeft=30;fontColor=#147EBA;dashed=0;" parent="zMahYsYN_JZd5JUXkMAy-28" vertex="1">
          <mxGeometry x="860" y="230" width="240" height="150" as="geometry" />
        </mxCell>
        <mxCell id="zMahYsYN_JZd5JUXkMAy-53" value="Route table" style="sketch=0;outlineConnect=0;fontColor=#232F3E;gradientColor=none;strokeColor=#232F3E;fillColor=#ffffff;dashed=0;verticalLabelPosition=bottom;verticalAlign=top;align=center;html=1;fontSize=12;fontStyle=0;aspect=fixed;shape=mxgraph.aws4.resourceIcon;resIcon=mxgraph.aws4.route_table;" parent="zMahYsYN_JZd5JUXkMAy-45" vertex="1">
          <mxGeometry x="-30" y="45" width="60" height="60" as="geometry" />
        </mxCell>
        <mxCell id="zMahYsYN_JZd5JUXkMAy-85" value="" style="image;sketch=0;aspect=fixed;html=1;points=[];align=center;fontSize=12;image=img/lib/mscae/Azure_Database_for_PostgreSQL_servers.svg;" parent="zMahYsYN_JZd5JUXkMAy-45" vertex="1">
          <mxGeometry x="56" y="39.84" width="58" height="76.32" as="geometry" />
        </mxCell>
        <mxCell id="zMahYsYN_JZd5JUXkMAy-88" value="PostgreSQL DB&lt;br&gt;Read Replica" style="text;strokeColor=none;align=center;fillColor=none;html=1;verticalAlign=middle;whiteSpace=wrap;rounded=0;" parent="zMahYsYN_JZd5JUXkMAy-45" vertex="1">
          <mxGeometry x="44" y="117.16" width="94" height="30" as="geometry" />
        </mxCell>
        <mxCell id="zMahYsYN_JZd5JUXkMAy-111" value="EFS &lt;br&gt;Mount&lt;br&gt;Target" style="outlineConnect=0;dashed=0;verticalLabelPosition=bottom;verticalAlign=top;align=center;html=1;shape=mxgraph.aws3.efs_share;fillColor=#E05243;gradientColor=none;" parent="zMahYsYN_JZd5JUXkMAy-45" vertex="1">
          <mxGeometry x="165" y="45" width="40" height="42.84" as="geometry" />
        </mxCell>
        <mxCell id="zMahYsYN_JZd5JUXkMAy-119" value="NACL" style="sketch=0;outlineConnect=0;fontColor=#232F3E;gradientColor=none;fillColor=#4D27AA;strokeColor=none;dashed=0;verticalLabelPosition=bottom;verticalAlign=top;align=center;html=1;fontSize=12;fontStyle=0;aspect=fixed;pointerEvents=1;shape=mxgraph.aws4.network_access_control_list;" parent="zMahYsYN_JZd5JUXkMAy-45" vertex="1">
          <mxGeometry x="201" y="-21" width="38" height="38" as="geometry" />
        </mxCell>
        <mxCell id="zMahYsYN_JZd5JUXkMAy-47" value="Private subnet" style="points=[[0,0],[0.25,0],[0.5,0],[0.75,0],[1,0],[1,0.25],[1,0.5],[1,0.75],[1,1],[0.75,1],[0.5,1],[0.25,1],[0,1],[0,0.75],[0,0.5],[0,0.25]];outlineConnect=0;gradientColor=none;html=1;whiteSpace=wrap;fontSize=12;fontStyle=0;container=1;pointerEvents=0;collapsible=0;recursiveResize=0;shape=mxgraph.aws4.group;grIcon=mxgraph.aws4.group_security_group;grStroke=0;strokeColor=#147EBA;fillColor=#E6F2F8;verticalAlign=top;align=left;spacingLeft=30;fontColor=#147EBA;dashed=0;" parent="zMahYsYN_JZd5JUXkMAy-28" vertex="1">
          <mxGeometry x="580" y="590" width="240" height="150" as="geometry" />
        </mxCell>
        <mxCell id="zMahYsYN_JZd5JUXkMAy-63" value="Route table" style="sketch=0;outlineConnect=0;fontColor=#232F3E;gradientColor=none;strokeColor=#232F3E;fillColor=#ffffff;dashed=0;verticalLabelPosition=bottom;verticalAlign=top;align=center;html=1;fontSize=12;fontStyle=0;aspect=fixed;shape=mxgraph.aws4.resourceIcon;resIcon=mxgraph.aws4.route_table;" parent="zMahYsYN_JZd5JUXkMAy-47" vertex="1">
          <mxGeometry x="-20" y="50" width="48" height="48" as="geometry" />
        </mxCell>
        <mxCell id="zMahYsYN_JZd5JUXkMAy-95" style="edgeStyle=orthogonalEdgeStyle;rounded=0;orthogonalLoop=1;jettySize=auto;html=1;" parent="zMahYsYN_JZd5JUXkMAy-47" target="zMahYsYN_JZd5JUXkMAy-63" edge="1">
          <mxGeometry relative="1" as="geometry">
            <mxPoint x="90" y="75" as="sourcePoint" />
          </mxGeometry>
        </mxCell>
        <mxCell id="zMahYsYN_JZd5JUXkMAy-96" style="edgeStyle=orthogonalEdgeStyle;rounded=0;orthogonalLoop=1;jettySize=auto;html=1;" parent="zMahYsYN_JZd5JUXkMAy-47" target="zMahYsYN_JZd5JUXkMAy-80" edge="1">
          <mxGeometry relative="1" as="geometry">
            <Array as="points">
              <mxPoint x="120" y="24" />
            </Array>
            <mxPoint x="120" y="43.5" as="sourcePoint" />
          </mxGeometry>
        </mxCell>
        <mxCell id="zMahYsYN_JZd5JUXkMAy-80" value="EBS" style="outlineConnect=0;dashed=0;verticalLabelPosition=bottom;verticalAlign=top;align=center;html=1;shape=mxgraph.aws3.volume;fillColor=#E05243;gradientColor=none;" parent="zMahYsYN_JZd5JUXkMAy-47" vertex="1">
          <mxGeometry x="132" y="17" width="30" height="30" as="geometry" />
        </mxCell>
        <mxCell id="zMahYsYN_JZd5JUXkMAy-118" value="NACL" style="sketch=0;outlineConnect=0;fontColor=#232F3E;gradientColor=none;fillColor=#4D27AA;strokeColor=none;dashed=0;verticalLabelPosition=bottom;verticalAlign=top;align=center;html=1;fontSize=12;fontStyle=0;aspect=fixed;pointerEvents=1;shape=mxgraph.aws4.network_access_control_list;" parent="zMahYsYN_JZd5JUXkMAy-47" vertex="1">
          <mxGeometry x="140" y="125.5" width="38" height="38" as="geometry" />
        </mxCell>
        <mxCell id="Ch-lbvPgT-3TGhZs1tBC-5" value="Worker-node" style="sketch=0;html=1;dashed=0;whitespace=wrap;fillColor=#2875E2;strokeColor=#ffffff;points=[[0.005,0.63,0],[0.1,0.2,0],[0.9,0.2,0],[0.5,0,0],[0.995,0.63,0],[0.72,0.99,0],[0.5,1,0],[0.28,0.99,0]];verticalLabelPosition=bottom;align=center;verticalAlign=top;shape=mxgraph.kubernetes.icon;prIcon=node" vertex="1" parent="zMahYsYN_JZd5JUXkMAy-47">
          <mxGeometry x="70" y="33" width="70" height="70" as="geometry" />
        </mxCell>
        <mxCell id="zMahYsYN_JZd5JUXkMAy-43" value="Public subnet" style="points=[[0,0],[0.25,0],[0.5,0],[0.75,0],[1,0],[1,0.25],[1,0.5],[1,0.75],[1,1],[0.75,1],[0.5,1],[0.25,1],[0,1],[0,0.75],[0,0.5],[0,0.25]];outlineConnect=0;gradientColor=none;html=1;whiteSpace=wrap;fontSize=12;fontStyle=0;container=1;pointerEvents=0;collapsible=0;recursiveResize=0;shape=mxgraph.aws4.group;grIcon=mxgraph.aws4.group_security_group;grStroke=0;strokeColor=#248814;fillColor=#E9F3E6;verticalAlign=top;align=left;spacingLeft=30;fontColor=#248814;dashed=0;" parent="zMahYsYN_JZd5JUXkMAy-28" vertex="1">
          <mxGeometry x="300" y="230" width="240" height="151" as="geometry" />
        </mxCell>
        <mxCell id="zMahYsYN_JZd5JUXkMAy-52" value="NAT Gateway&lt;br&gt;" style="sketch=0;outlineConnect=0;fontColor=#232F3E;gradientColor=none;fillColor=#4D27AA;strokeColor=none;dashed=0;verticalLabelPosition=bottom;verticalAlign=top;align=center;html=1;fontSize=12;fontStyle=0;aspect=fixed;pointerEvents=1;shape=mxgraph.aws4.nat_gateway;" parent="zMahYsYN_JZd5JUXkMAy-43" vertex="1">
          <mxGeometry x="164" y="57" width="48" height="48" as="geometry" />
        </mxCell>
        <mxCell id="zMahYsYN_JZd5JUXkMAy-49" value="Bastion Host" style="sketch=0;outlineConnect=0;fontColor=#232F3E;gradientColor=none;fillColor=#D45B07;strokeColor=none;dashed=0;verticalLabelPosition=bottom;verticalAlign=top;align=center;html=1;fontSize=12;fontStyle=0;aspect=fixed;pointerEvents=1;shape=mxgraph.aws4.instance2;" parent="zMahYsYN_JZd5JUXkMAy-43" vertex="1">
          <mxGeometry x="13" y="30" width="48" height="48" as="geometry" />
        </mxCell>
        <mxCell id="zMahYsYN_JZd5JUXkMAy-69" style="edgeStyle=orthogonalEdgeStyle;rounded=0;orthogonalLoop=1;jettySize=auto;html=1;startArrow=classic;startFill=1;endArrow=none;endFill=0;" parent="zMahYsYN_JZd5JUXkMAy-43" source="zMahYsYN_JZd5JUXkMAy-59" target="zMahYsYN_JZd5JUXkMAy-52" edge="1">
          <mxGeometry relative="1" as="geometry">
            <Array as="points">
              <mxPoint x="116" y="80" />
            </Array>
          </mxGeometry>
        </mxCell>
        <mxCell id="zMahYsYN_JZd5JUXkMAy-59" value="Route table" style="sketch=0;outlineConnect=0;fontColor=#232F3E;gradientColor=none;strokeColor=#232F3E;fillColor=#ffffff;dashed=0;verticalLabelPosition=bottom;verticalAlign=top;align=center;html=1;fontSize=12;fontStyle=0;aspect=fixed;shape=mxgraph.aws4.resourceIcon;resIcon=mxgraph.aws4.route_table;" parent="zMahYsYN_JZd5JUXkMAy-43" vertex="1">
          <mxGeometry x="86" y="100" width="51" height="51" as="geometry" />
        </mxCell>
        <mxCell id="zMahYsYN_JZd5JUXkMAy-122" value="NACL" style="sketch=0;outlineConnect=0;fontColor=#232F3E;gradientColor=none;fillColor=#4D27AA;strokeColor=none;dashed=0;verticalLabelPosition=bottom;verticalAlign=top;align=center;html=1;fontSize=12;fontStyle=0;aspect=fixed;pointerEvents=1;shape=mxgraph.aws4.network_access_control_list;" parent="zMahYsYN_JZd5JUXkMAy-43" vertex="1">
          <mxGeometry x="201" y="-22" width="38" height="38" as="geometry" />
        </mxCell>
        <mxCell id="zMahYsYN_JZd5JUXkMAy-46" value="Public subnet" style="points=[[0,0],[0.25,0],[0.5,0],[0.75,0],[1,0],[1,0.25],[1,0.5],[1,0.75],[1,1],[0.75,1],[0.5,1],[0.25,1],[0,1],[0,0.75],[0,0.5],[0,0.25]];outlineConnect=0;gradientColor=none;html=1;whiteSpace=wrap;fontSize=12;fontStyle=0;container=1;pointerEvents=0;collapsible=0;recursiveResize=0;shape=mxgraph.aws4.group;grIcon=mxgraph.aws4.group_security_group;grStroke=0;strokeColor=#248814;fillColor=#E9F3E6;verticalAlign=top;align=left;spacingLeft=30;fontColor=#248814;dashed=0;" parent="zMahYsYN_JZd5JUXkMAy-28" vertex="1">
          <mxGeometry x="300" y="590" width="240" height="150" as="geometry" />
        </mxCell>
        <mxCell id="zMahYsYN_JZd5JUXkMAy-50" value="Bastion Host" style="sketch=0;outlineConnect=0;fontColor=#232F3E;gradientColor=none;fillColor=#D45B07;strokeColor=none;dashed=0;verticalLabelPosition=bottom;verticalAlign=top;align=center;html=1;fontSize=12;fontStyle=0;aspect=fixed;pointerEvents=1;shape=mxgraph.aws4.instance2;" parent="zMahYsYN_JZd5JUXkMAy-46" vertex="1">
          <mxGeometry x="13" y="78" width="48" height="48" as="geometry" />
        </mxCell>
        <mxCell id="zMahYsYN_JZd5JUXkMAy-65" style="edgeStyle=orthogonalEdgeStyle;rounded=0;orthogonalLoop=1;jettySize=auto;html=1;" parent="zMahYsYN_JZd5JUXkMAy-46" source="zMahYsYN_JZd5JUXkMAy-51" target="zMahYsYN_JZd5JUXkMAy-60" edge="1">
          <mxGeometry relative="1" as="geometry" />
        </mxCell>
        <mxCell id="zMahYsYN_JZd5JUXkMAy-51" value="NAT Gateway&lt;br&gt;" style="sketch=0;outlineConnect=0;fontColor=#232F3E;gradientColor=none;fillColor=#4D27AA;strokeColor=none;dashed=0;verticalLabelPosition=bottom;verticalAlign=top;align=center;html=1;fontSize=12;fontStyle=0;aspect=fixed;pointerEvents=1;shape=mxgraph.aws4.nat_gateway;" parent="zMahYsYN_JZd5JUXkMAy-46" vertex="1">
          <mxGeometry x="175" y="38" width="48" height="48" as="geometry" />
        </mxCell>
        <mxCell id="zMahYsYN_JZd5JUXkMAy-60" value="Route table" style="sketch=0;outlineConnect=0;fontColor=#232F3E;gradientColor=none;strokeColor=#232F3E;fillColor=#ffffff;dashed=0;verticalLabelPosition=bottom;verticalAlign=top;align=center;html=1;fontSize=12;fontStyle=0;aspect=fixed;shape=mxgraph.aws4.resourceIcon;resIcon=mxgraph.aws4.route_table;" parent="zMahYsYN_JZd5JUXkMAy-46" vertex="1">
          <mxGeometry x="106" y="-20" width="51" height="51" as="geometry" />
        </mxCell>
        <mxCell id="zMahYsYN_JZd5JUXkMAy-123" value="NACL" style="sketch=0;outlineConnect=0;fontColor=#232F3E;gradientColor=none;fillColor=#4D27AA;strokeColor=none;dashed=0;verticalLabelPosition=bottom;verticalAlign=top;align=center;html=1;fontSize=12;fontStyle=0;aspect=fixed;pointerEvents=1;shape=mxgraph.aws4.network_access_control_list;" parent="zMahYsYN_JZd5JUXkMAy-46" vertex="1">
          <mxGeometry x="201" y="125" width="38" height="38" as="geometry" />
        </mxCell>
        <mxCell id="zMahYsYN_JZd5JUXkMAy-26" value="IAM" style="outlineConnect=0;dashed=0;verticalLabelPosition=bottom;verticalAlign=top;align=center;html=1;shape=mxgraph.aws3.iam;fillColor=#759C3E;gradientColor=none;" parent="zMahYsYN_JZd5JUXkMAy-28" vertex="1">
          <mxGeometry x="38.25" y="319" width="42" height="81" as="geometry" />
        </mxCell>
        <mxCell id="zMahYsYN_JZd5JUXkMAy-48" value="Private subnet" style="points=[[0,0],[0.25,0],[0.5,0],[0.75,0],[1,0],[1,0.25],[1,0.5],[1,0.75],[1,1],[0.75,1],[0.5,1],[0.25,1],[0,1],[0,0.75],[0,0.5],[0,0.25]];outlineConnect=0;gradientColor=none;html=1;whiteSpace=wrap;fontSize=12;fontStyle=0;container=1;pointerEvents=0;collapsible=0;recursiveResize=0;shape=mxgraph.aws4.group;grIcon=mxgraph.aws4.group_security_group;grStroke=0;strokeColor=#147EBA;fillColor=#E6F2F8;verticalAlign=top;align=left;spacingLeft=30;fontColor=#147EBA;dashed=0;" parent="zMahYsYN_JZd5JUXkMAy-28" vertex="1">
          <mxGeometry x="860" y="590" width="240" height="150" as="geometry" />
        </mxCell>
        <mxCell id="zMahYsYN_JZd5JUXkMAy-62" value="Route table" style="sketch=0;outlineConnect=0;fontColor=#232F3E;gradientColor=none;strokeColor=#232F3E;fillColor=#ffffff;dashed=0;verticalLabelPosition=bottom;verticalAlign=top;align=center;html=1;fontSize=12;fontStyle=0;aspect=fixed;shape=mxgraph.aws4.resourceIcon;resIcon=mxgraph.aws4.route_table;" parent="zMahYsYN_JZd5JUXkMAy-48" vertex="1">
          <mxGeometry x="-29" y="40" width="60" height="60" as="geometry" />
        </mxCell>
        <mxCell id="zMahYsYN_JZd5JUXkMAy-89" value="" style="image;sketch=0;aspect=fixed;html=1;points=[];align=center;fontSize=12;image=img/lib/mscae/Azure_Database_for_PostgreSQL_servers.svg;" parent="zMahYsYN_JZd5JUXkMAy-48" vertex="1">
          <mxGeometry x="59" y="25.340000000000032" width="58" height="76.32" as="geometry" />
        </mxCell>
        <mxCell id="zMahYsYN_JZd5JUXkMAy-90" value="PostgreSQL&lt;br&gt;Primary DB" style="text;strokeColor=none;align=center;fillColor=none;html=1;verticalAlign=middle;whiteSpace=wrap;rounded=0;" parent="zMahYsYN_JZd5JUXkMAy-48" vertex="1">
          <mxGeometry x="47" y="106.65999999999997" width="94" height="30" as="geometry" />
        </mxCell>
        <mxCell id="zMahYsYN_JZd5JUXkMAy-57" style="edgeStyle=orthogonalEdgeStyle;rounded=0;orthogonalLoop=1;jettySize=auto;html=1;" parent="zMahYsYN_JZd5JUXkMAy-28" source="zMahYsYN_JZd5JUXkMAy-54" target="zMahYsYN_JZd5JUXkMAy-52" edge="1">
          <mxGeometry relative="1" as="geometry" />
        </mxCell>
        <mxCell id="zMahYsYN_JZd5JUXkMAy-64" style="edgeStyle=orthogonalEdgeStyle;rounded=0;orthogonalLoop=1;jettySize=auto;html=1;" parent="zMahYsYN_JZd5JUXkMAy-28" source="zMahYsYN_JZd5JUXkMAy-63" target="zMahYsYN_JZd5JUXkMAy-51" edge="1">
          <mxGeometry relative="1" as="geometry" />
        </mxCell>
        <mxCell id="zMahYsYN_JZd5JUXkMAy-72" style="edgeStyle=orthogonalEdgeStyle;rounded=0;orthogonalLoop=1;jettySize=auto;html=1;" parent="zMahYsYN_JZd5JUXkMAy-28" source="zMahYsYN_JZd5JUXkMAy-50" target="zMahYsYN_JZd5JUXkMAy-63" edge="1">
          <mxGeometry relative="1" as="geometry">
            <Array as="points">
              <mxPoint x="460" y="692" />
              <mxPoint x="460" y="680" />
            </Array>
          </mxGeometry>
        </mxCell>
        <mxCell id="zMahYsYN_JZd5JUXkMAy-73" value="SSH" style="edgeLabel;html=1;align=center;verticalAlign=middle;resizable=0;points=[];" parent="zMahYsYN_JZd5JUXkMAy-72" vertex="1" connectable="0">
          <mxGeometry x="-0.8531" y="2" relative="1" as="geometry">
            <mxPoint x="1" y="1" as="offset" />
          </mxGeometry>
        </mxCell>
        <mxCell id="zMahYsYN_JZd5JUXkMAy-74" style="edgeStyle=orthogonalEdgeStyle;rounded=0;orthogonalLoop=1;jettySize=auto;html=1;" parent="zMahYsYN_JZd5JUXkMAy-28" source="zMahYsYN_JZd5JUXkMAy-49" target="zMahYsYN_JZd5JUXkMAy-54" edge="1">
          <mxGeometry relative="1" as="geometry">
            <Array as="points">
              <mxPoint x="500" y="284" />
              <mxPoint x="500" y="284" />
            </Array>
          </mxGeometry>
        </mxCell>
        <mxCell id="zMahYsYN_JZd5JUXkMAy-75" value="SSH" style="edgeLabel;html=1;align=center;verticalAlign=middle;resizable=0;points=[];" parent="zMahYsYN_JZd5JUXkMAy-74" vertex="1" connectable="0">
          <mxGeometry x="-0.4868" y="2" relative="1" as="geometry">
            <mxPoint x="1" y="1" as="offset" />
          </mxGeometry>
        </mxCell>
        <mxCell id="zMahYsYN_JZd5JUXkMAy-81" value="Auto Scaling" style="sketch=0;outlineConnect=0;fontColor=#232F3E;gradientColor=none;fillColor=#D45B07;strokeColor=none;dashed=0;verticalLabelPosition=bottom;verticalAlign=top;align=center;html=1;fontSize=12;fontStyle=0;aspect=fixed;pointerEvents=1;shape=mxgraph.aws4.auto_scaling2;" parent="zMahYsYN_JZd5JUXkMAy-28" vertex="1">
          <mxGeometry x="671" y="450" width="48" height="48" as="geometry" />
        </mxCell>
        <mxCell id="zMahYsYN_JZd5JUXkMAy-82" value="Auto Scaling" style="sketch=0;outlineConnect=0;fontColor=#232F3E;gradientColor=none;fillColor=#D45B07;strokeColor=none;dashed=0;verticalLabelPosition=bottom;verticalAlign=top;align=center;html=1;fontSize=12;fontStyle=0;aspect=fixed;pointerEvents=1;shape=mxgraph.aws4.auto_scaling2;" parent="zMahYsYN_JZd5JUXkMAy-28" vertex="1">
          <mxGeometry x="924" y="450" width="48" height="48" as="geometry" />
        </mxCell>
        <mxCell id="zMahYsYN_JZd5JUXkMAy-114" style="edgeStyle=orthogonalEdgeStyle;rounded=0;orthogonalLoop=1;jettySize=auto;html=1;entryX=0.992;entryY=0.794;entryDx=0;entryDy=0;entryPerimeter=0;startArrow=classic;startFill=1;" parent="zMahYsYN_JZd5JUXkMAy-28" edge="1">
          <mxGeometry relative="1" as="geometry">
            <mxPoint x="1051" y="712" as="sourcePoint" />
            <mxPoint x="729.52" y="675.5219999999999" as="targetPoint" />
            <Array as="points">
              <mxPoint x="1051" y="732" />
              <mxPoint x="760" y="732" />
              <mxPoint x="760" y="676" />
            </Array>
          </mxGeometry>
        </mxCell>
        <mxCell id="zMahYsYN_JZd5JUXkMAy-112" value="EFS &lt;br&gt;Mount&lt;br&gt;Target" style="outlineConnect=0;dashed=0;verticalLabelPosition=bottom;verticalAlign=top;align=center;html=1;shape=mxgraph.aws3.efs_share;fillColor=#E05243;gradientColor=none;" parent="zMahYsYN_JZd5JUXkMAy-28" vertex="1">
          <mxGeometry x="1031" y="620" width="40" height="42.84" as="geometry" />
        </mxCell>
        <mxCell id="zMahYsYN_JZd5JUXkMAy-120" value="NACL" style="sketch=0;outlineConnect=0;fontColor=#232F3E;gradientColor=none;fillColor=#4D27AA;strokeColor=none;dashed=0;verticalLabelPosition=bottom;verticalAlign=top;align=center;html=1;fontSize=12;fontStyle=0;aspect=fixed;pointerEvents=1;shape=mxgraph.aws4.network_access_control_list;" parent="zMahYsYN_JZd5JUXkMAy-28" vertex="1">
          <mxGeometry x="1064" y="716" width="38" height="38" as="geometry" />
        </mxCell>
        <mxCell id="zMahYsYN_JZd5JUXkMAy-127" value="Amazon&lt;br&gt;CloudWatch" style="outlineConnect=0;dashed=0;verticalLabelPosition=bottom;verticalAlign=top;align=center;html=1;shape=mxgraph.aws3.cloudwatch;fillColor=#759C3E;gradientColor=none;" parent="zMahYsYN_JZd5JUXkMAy-28" vertex="1">
          <mxGeometry x="280" y="439" width="70" height="70" as="geometry" />
        </mxCell>
        <mxCell id="zMahYsYN_JZd5JUXkMAy-129" style="edgeStyle=orthogonalEdgeStyle;rounded=0;orthogonalLoop=1;jettySize=auto;html=1;exitX=0.015;exitY=0.015;exitDx=0;exitDy=0;exitPerimeter=0;entryX=1;entryY=0.78;entryDx=0;entryDy=0;entryPerimeter=0;dashed=1;dashPattern=1 1;" parent="zMahYsYN_JZd5JUXkMAy-28" target="zMahYsYN_JZd5JUXkMAy-127" edge="1">
          <mxGeometry relative="1" as="geometry">
            <Array as="points">
              <mxPoint x="671" y="620" />
              <mxPoint x="610" y="620" />
              <mxPoint x="610" y="540" />
              <mxPoint x="350" y="540" />
            </Array>
            <mxPoint x="670.9000000000001" y="634.4449999999999" as="sourcePoint" />
          </mxGeometry>
        </mxCell>
        <mxCell id="zMahYsYN_JZd5JUXkMAy-130" style="edgeStyle=orthogonalEdgeStyle;rounded=0;orthogonalLoop=1;jettySize=auto;html=1;exitX=0.23;exitY=0.77;exitDx=0;exitDy=0;exitPerimeter=0;entryX=0.75;entryY=0.14;entryDx=0;entryDy=0;entryPerimeter=0;dashed=1;dashPattern=1 1;" parent="zMahYsYN_JZd5JUXkMAy-28" target="zMahYsYN_JZd5JUXkMAy-127" edge="1">
          <mxGeometry relative="1" as="geometry">
            <Array as="points">
              <mxPoint x="680" y="336" />
              <mxPoint x="680" y="350" />
              <mxPoint x="610" y="350" />
              <mxPoint x="610" y="420" />
              <mxPoint x="333" y="420" />
            </Array>
            <mxPoint x="673.8000000000002" y="335.51" as="sourcePoint" />
          </mxGeometry>
        </mxCell>
        <mxCell id="zMahYsYN_JZd5JUXkMAy-92" value="" style="rounded=1;arcSize=10;dashed=1;fillColor=none;gradientColor=none;dashPattern=1 1;strokeWidth=2;" parent="zMahYsYN_JZd5JUXkMAy-28" vertex="1">
          <mxGeometry x="900" y="270" width="96" height="460" as="geometry" />
        </mxCell>
        <mxCell id="Ch-lbvPgT-3TGhZs1tBC-14" value="Roles" style="outlineConnect=0;dashed=0;verticalLabelPosition=bottom;verticalAlign=top;align=center;html=1;shape=mxgraph.aws3.role;fillColor=#759C3E;gradientColor=none;" vertex="1" parent="zMahYsYN_JZd5JUXkMAy-28">
          <mxGeometry x="26" y="480" width="66.5" height="50" as="geometry" />
        </mxCell>
        <mxCell id="Ch-lbvPgT-3TGhZs1tBC-15" value="KMS" style="outlineConnect=0;dashed=0;verticalLabelPosition=bottom;verticalAlign=top;align=center;html=1;shape=mxgraph.aws3.kms;fillColor=#759C3E;gradientColor=none;" vertex="1" parent="zMahYsYN_JZd5JUXkMAy-28">
          <mxGeometry x="31.25" y="557" width="52.5" height="60" as="geometry" />
        </mxCell>
        <mxCell id="zMahYsYN_JZd5JUXkMAy-15" value="" style="edgeStyle=orthogonalEdgeStyle;rounded=0;orthogonalLoop=1;jettySize=auto;html=1;" parent="1" source="zMahYsYN_JZd5JUXkMAy-11" target="zMahYsYN_JZd5JUXkMAy-14" edge="1">
          <mxGeometry relative="1" as="geometry" />
        </mxCell>
        <mxCell id="zMahYsYN_JZd5JUXkMAy-16" value="" style="edgeStyle=orthogonalEdgeStyle;rounded=0;orthogonalLoop=1;jettySize=auto;html=1;" parent="1" source="zMahYsYN_JZd5JUXkMAy-11" target="zMahYsYN_JZd5JUXkMAy-14" edge="1">
          <mxGeometry relative="1" as="geometry" />
        </mxCell>
        <mxCell id="zMahYsYN_JZd5JUXkMAy-17" style="edgeStyle=orthogonalEdgeStyle;rounded=0;orthogonalLoop=1;jettySize=auto;html=1;" parent="1" source="zMahYsYN_JZd5JUXkMAy-11" target="zMahYsYN_JZd5JUXkMAy-13" edge="1">
          <mxGeometry relative="1" as="geometry" />
        </mxCell>
        <mxCell id="zMahYsYN_JZd5JUXkMAy-22" value="" style="edgeStyle=orthogonalEdgeStyle;rounded=0;orthogonalLoop=1;jettySize=auto;html=1;startArrow=classic;startFill=1;" parent="1" edge="1">
          <mxGeometry relative="1" as="geometry">
            <mxPoint x="69" y="528" as="sourcePoint" />
            <mxPoint x="69" y="563" as="targetPoint" />
          </mxGeometry>
        </mxCell>
        <mxCell id="zMahYsYN_JZd5JUXkMAy-11" value="" style="sketch=0;pointerEvents=1;shadow=0;dashed=0;html=1;strokeColor=none;fillColor=#505050;labelPosition=center;verticalLabelPosition=bottom;verticalAlign=top;outlineConnect=0;align=center;shape=mxgraph.office.devices.laptop;" parent="1" vertex="1">
          <mxGeometry x="40" y="490" width="58" height="34" as="geometry" />
        </mxCell>
        <mxCell id="zMahYsYN_JZd5JUXkMAy-18" value="z" style="rounded=0;orthogonalLoop=1;jettySize=auto;html=1;endArrow=classic;endFill=1;shape=link;" parent="1" edge="1">
          <mxGeometry relative="1" as="geometry">
            <mxPoint x="130" y="507" as="sourcePoint" />
            <mxPoint x="95" y="507" as="targetPoint" />
          </mxGeometry>
        </mxCell>
        <mxCell id="zMahYsYN_JZd5JUXkMAy-30" value="" style="edgeStyle=orthogonalEdgeStyle;rounded=0;orthogonalLoop=1;jettySize=auto;html=1;startArrow=classic;startFill=1;" parent="1" edge="1">
          <mxGeometry relative="1" as="geometry">
            <mxPoint x="161" y="560" as="sourcePoint" />
            <mxPoint x="161" y="630" as="targetPoint" />
          </mxGeometry>
        </mxCell>
        <mxCell id="zMahYsYN_JZd5JUXkMAy-41" style="edgeStyle=orthogonalEdgeStyle;rounded=0;orthogonalLoop=1;jettySize=auto;html=1;" parent="1" source="zMahYsYN_JZd5JUXkMAy-12" target="zMahYsYN_JZd5JUXkMAy-39" edge="1">
          <mxGeometry relative="1" as="geometry" />
        </mxCell>
        <mxCell id="zMahYsYN_JZd5JUXkMAy-12" value="Internet" style="sketch=0;pointerEvents=1;shadow=0;dashed=0;html=1;strokeColor=none;fillColor=#505050;labelPosition=center;verticalLabelPosition=bottom;verticalAlign=top;outlineConnect=0;align=center;shape=mxgraph.office.concepts.website;" parent="1" vertex="1">
          <mxGeometry x="132" y="480.5" width="59" height="49" as="geometry" />
        </mxCell>
        <mxCell id="zMahYsYN_JZd5JUXkMAy-13" value="" style="image;sketch=0;aspect=fixed;html=1;points=[];align=center;fontSize=12;image=img/lib/mscae/VM_Linux.svg;" parent="1" vertex="1">
          <mxGeometry x="25" y="407" width="39.13" height="36" as="geometry" />
        </mxCell>
        <mxCell id="zMahYsYN_JZd5JUXkMAy-14" value="" style="image;sketch=0;aspect=fixed;html=1;points=[];align=center;fontSize=12;image=img/lib/mscae/VirtualMachineWindows.svg;" parent="1" vertex="1">
          <mxGeometry x="70" y="407" width="39.13" height="36" as="geometry" />
        </mxCell>
        <mxCell id="zMahYsYN_JZd5JUXkMAy-23" value="&lt;font color=&quot;#000000&quot;&gt;Router&lt;/font&gt;" style="fontColor=#0066CC;verticalAlign=top;verticalLabelPosition=bottom;labelPosition=center;align=center;html=1;outlineConnect=0;fillColor=#CCCCCC;strokeColor=#6881B3;gradientColor=none;gradientDirection=north;strokeWidth=2;shape=mxgraph.networks.router;" parent="1" vertex="1">
          <mxGeometry x="42.13" y="564" width="55.87" height="15" as="geometry" />
        </mxCell>
        <mxCell id="zMahYsYN_JZd5JUXkMAy-33" value="DNS Resolver" style="verticalLabelPosition=bottom;sketch=0;aspect=fixed;html=1;verticalAlign=top;strokeColor=none;align=center;outlineConnect=0;shape=mxgraph.citrix.dns_server;" parent="1" vertex="1">
          <mxGeometry x="135.66" y="630" width="51.69" height="62.5" as="geometry" />
        </mxCell>
        <mxCell id="zMahYsYN_JZd5JUXkMAy-116" style="edgeStyle=orthogonalEdgeStyle;rounded=0;orthogonalLoop=1;jettySize=auto;html=1;entryX=0.89;entryY=0.5;entryDx=0;entryDy=0;entryPerimeter=0;startArrow=classic;startFill=1;" parent="1" source="zMahYsYN_JZd5JUXkMAy-37" target="zMahYsYN_JZd5JUXkMAy-111" edge="1">
          <mxGeometry relative="1" as="geometry">
            <Array as="points">
              <mxPoint x="1410" y="520" />
              <mxPoint x="1410" y="336" />
            </Array>
          </mxGeometry>
        </mxCell>
        <mxCell id="zMahYsYN_JZd5JUXkMAy-37" value="Amazon EFS" style="outlineConnect=0;dashed=0;verticalLabelPosition=bottom;verticalAlign=top;align=center;html=1;shape=mxgraph.aws3.efs;fillColor=#E05243;gradientColor=none;" parent="1" vertex="1">
          <mxGeometry x="1421" y="473.5" width="76.5" height="93" as="geometry" />
        </mxCell>
        <mxCell id="zMahYsYN_JZd5JUXkMAy-70" style="edgeStyle=orthogonalEdgeStyle;rounded=0;orthogonalLoop=1;jettySize=auto;html=1;" parent="1" edge="1">
          <mxGeometry relative="1" as="geometry">
            <mxPoint x="635" y="600" as="sourcePoint" />
            <mxPoint x="429" y="529" as="targetPoint" />
            <Array as="points">
              <mxPoint x="635" y="589" />
              <mxPoint x="429" y="589" />
            </Array>
          </mxGeometry>
        </mxCell>
        <mxCell id="zMahYsYN_JZd5JUXkMAy-71" style="edgeStyle=orthogonalEdgeStyle;rounded=0;orthogonalLoop=1;jettySize=auto;html=1;entryX=0.855;entryY=0.145;entryDx=0;entryDy=0;entryPerimeter=0;" parent="1" edge="1">
          <mxGeometry relative="1" as="geometry">
            <mxPoint x="619" y="428" as="sourcePoint" />
            <mxPoint x="425.9949999999999" y="479.44000000000005" as="targetPoint" />
            <Array as="points">
              <mxPoint x="619" y="450" />
              <mxPoint x="426" y="450" />
            </Array>
          </mxGeometry>
        </mxCell>
        <mxCell id="zMahYsYN_JZd5JUXkMAy-117" style="edgeStyle=orthogonalEdgeStyle;rounded=0;orthogonalLoop=1;jettySize=auto;html=1;entryX=0.89;entryY=0.5;entryDx=0;entryDy=0;entryPerimeter=0;startArrow=classic;startFill=1;" parent="1" target="zMahYsYN_JZd5JUXkMAy-112" edge="1">
          <mxGeometry relative="1" as="geometry">
            <mxPoint x="1420" y="530" as="sourcePoint" />
            <mxPoint x="1271" y="346" as="targetPoint" />
            <Array as="points">
              <mxPoint x="1410" y="530" />
              <mxPoint x="1410" y="681" />
            </Array>
          </mxGeometry>
        </mxCell>
        <mxCell id="Ch-lbvPgT-3TGhZs1tBC-6" value="Worker-node" style="sketch=0;html=1;dashed=0;whitespace=wrap;fillColor=#2875E2;strokeColor=#ffffff;points=[[0.005,0.63,0],[0.1,0.2,0],[0.9,0.2,0],[0.5,0,0],[0.995,0.63,0],[0.72,0.99,0],[0.5,1,0],[0.28,0.99,0]];verticalLabelPosition=bottom;align=center;verticalAlign=top;shape=mxgraph.kubernetes.icon;prIcon=node" vertex="1" parent="1">
          <mxGeometry x="848" y="322" width="70" height="70" as="geometry" />
        </mxCell>
        <mxCell id="zMahYsYN_JZd5JUXkMAy-113" style="edgeStyle=orthogonalEdgeStyle;rounded=0;orthogonalLoop=1;jettySize=auto;html=1;entryX=0.995;entryY=0.63;entryDx=0;entryDy=0;entryPerimeter=0;startArrow=classic;startFill=1;" parent="1" edge="1">
          <mxGeometry relative="1" as="geometry">
            <Array as="points">
              <mxPoint x="1245" y="300" />
              <mxPoint x="1000" y="300" />
              <mxPoint x="1000" y="366" />
            </Array>
            <mxPoint x="1245" y="315" as="sourcePoint" />
            <mxPoint x="917.6500000000001" y="366.0999999999999" as="targetPoint" />
          </mxGeometry>
        </mxCell>
        <mxCell id="Ch-lbvPgT-3TGhZs1tBC-8" value="Amazon EKS" style="sketch=0;points=[[0,0,0],[0.25,0,0],[0.5,0,0],[0.75,0,0],[1,0,0],[0,1,0],[0.25,1,0],[0.5,1,0],[0.75,1,0],[1,1,0],[0,0.25,0],[0,0.5,0],[0,0.75,0],[1,0.25,0],[1,0.5,0],[1,0.75,0]];outlineConnect=0;fontColor=#232F3E;fillColor=#ED7100;strokeColor=#ffffff;dashed=0;verticalLabelPosition=bottom;verticalAlign=top;align=center;html=1;fontSize=12;fontStyle=0;aspect=fixed;shape=mxgraph.aws4.resourceIcon;resIcon=mxgraph.aws4.eks;" vertex="1" parent="1">
          <mxGeometry x="734" y="473.5" width="78" height="78" as="geometry" />
        </mxCell>
        <mxCell id="Ch-lbvPgT-3TGhZs1tBC-9" style="edgeStyle=orthogonalEdgeStyle;rounded=0;orthogonalLoop=1;jettySize=auto;html=1;entryX=0.005;entryY=0.63;entryDx=0;entryDy=0;entryPerimeter=0;" edge="1" parent="1">
          <mxGeometry relative="1" as="geometry">
            <mxPoint x="809" y="512.5" as="sourcePoint" />
            <mxPoint x="845.3499999999999" y="366.0999999999999" as="targetPoint" />
            <Array as="points">
              <mxPoint x="827" y="513" />
              <mxPoint x="827" y="392" />
              <mxPoint x="845" y="392" />
            </Array>
          </mxGeometry>
        </mxCell>
        <mxCell id="Ch-lbvPgT-3TGhZs1tBC-10" style="edgeStyle=orthogonalEdgeStyle;rounded=0;orthogonalLoop=1;jettySize=auto;html=1;" edge="1" parent="1">
          <mxGeometry relative="1" as="geometry">
            <mxPoint x="809" y="512.5" as="sourcePoint" />
            <mxPoint x="847" y="690" as="targetPoint" />
            <Array as="points">
              <mxPoint x="827" y="513" />
              <mxPoint x="827" y="663" />
              <mxPoint x="847" y="663" />
            </Array>
          </mxGeometry>
        </mxCell>
        <mxCell id="zMahYsYN_JZd5JUXkMAy-91" value="" style="rounded=1;arcSize=10;dashed=1;fillColor=none;gradientColor=none;dashPattern=1 1;strokeWidth=2;shadow=0;glass=0;" parent="1" vertex="1">
          <mxGeometry x="844" y="298" width="100" height="460" as="geometry" />
        </mxCell>
      </root>
    </mxGraphModel>
  </diagram>
</mxfile>
